<?xml version="1.0" encoding="utf-8"?>
<svg version="1.1" id="Layer_1" xmlns="http://www.w3.org/2000/svg" xmlns:xlink="http://www.w3.org/1999/xlink" x="0px" y="0px"
	 viewBox="0 0 383.9 35.6" style="enable-background:new 0 0 383.9 35.6;" xml:space="preserve">
<g>
	<g fill="#9fafc5">
		<path d="M15.1,14.3c0-0.3,0-3.9,0-5.4c0-0.4-0.1-0.7-0.1-0.7s0.4,0.1,0.7,0.1c0.4,0,4.1,0,4.1,0c3.1,0,4.9,0.5,4.9,3.3 c0,1.8-1.1,3.4-4.8,3.4c0,0-3.8,0-4.2,0c-0.4,0-0.7,0-0.7,0S15.1,14.7,15.1,14.3z M15.1,26.7c0-0.1,0-4.5,0-6.2 c0-0.4-0.1-0.7-0.1-0.7s0.4,0.1,0.7,0.1c0.4,0,3.4,0,3.4,0c2.7,0,6.1,0,6.1,3.8c0,2.8-2.4,3.8-5.6,3.8c0,0-3.8,0-3.9,0 c-0.4,0-0.7,0.1-0.7,0.1S15.1,27,15.1,26.7z M5.3,4.9l0,25.9c0,0.8,0,1.1-0.5,1.5c-0.6,0.4-1.2,0.4-2.1,0.6c0,0,0,0,0,0 c-0.1,0-0.1,0.4,0,0.4c0.1,0,20.9,0,20.9,0c8.8,0,12.5-3.5,12.5-9c0-4-1.9-6.5-5.6-7.4c-0.1,0-0.1-0.1,0-0.1 c2.4-0.7,4.6-2.5,4.6-6.7c0-5.7-3.9-7.6-12.3-7.6H2.6c-0.1,0-0.1,0.4,0,0.4c0,0,0,0,0,0c1,0.2,1.6,0.2,2.1,0.6 C5.3,3.8,5.3,4.1,5.3,4.9z"/>
		<path d="M110.8,4.9c0-0.8,0-1.1,0.5-1.5c0.6-0.4,1.2-0.4,2.1-0.6c0,0,0,0,0,0c0.1,0,0.1-0.4,0-0.4L98,2.5 c-0.1,0-0.1,0.4,0,0.4c0,0,0,0,0,0c1,0.1,1.4,0.2,2,0.6c0.6,0.4,0.5,0.7,0.5,1.5v15.6c0,3.5-2,6.3-6.1,6.3c-4,0-6.1-2.7-6.1-6.3 l0-15.5c0-0.8,0-1.1,0.5-1.5C89.5,3.1,90,3,91,2.8c0,0,0,0,0,0c0.1,0,0.1-0.4,0-0.4l-14.6,0c-0.1,0-0.1,0.4,0,0.4c0,0,0,0,0,0 c0.5,0,0.9,0.1,1.2,0.3c0.5,0.4,0.6,0.9,0.6,1.7l0,15.3c0,7.4,4,13.6,16.3,13.6c12.2,0,16.3-6.3,16.3-13.6V4.9z"/>
		<path d="M64,33.3c0.1,0,0.1-0.4,0-0.4c0,0,0,0,0,0c-1-0.2-1.6-0.2-2.1-0.6c-0.6-0.4-0.5-0.7-0.5-1.5V21L72,5.1 c0.6-0.9,1-1.3,1.4-1.7c0.1-0.1,0.3-0.2,0.4-0.3c0.4-0.2,0.6-0.3,1.2-0.3c0,0,0,0,0,0c0.1,0,0.1-0.4,0-0.4l-14.4,0 c-0.1,0-0.1,0.4,0,0.4c0,0,0,0,0,0c0.7,0,1.6,0,1.4,1c-0.1,1-4.2,7-5.7,9.3c-0.2,0.3-0.4,0.7-0.4,1.1c-0.1-0.4-0.3-0.8-0.5-1.1 c-2.1-3.1-5.6-8-5.7-9.3c-0.1-1,0.7-1,1.4-1c0,0,0,0,0,0c0.1,0,0.1-0.4,0-0.4L36,2.5c-0.1,0-0.1,0.3,0,0.4c0,0,0,0,0,0 c0.6,0.1,1,0,1.8,0.4c0.1,0,0.3,0.2,0.4,0.3c0.5,0.4,0.8,0.8,1.4,1.6l10.7,15.8l0,9.9c0,0.8,0,1.1-0.5,1.5 c-0.6,0.4-1.2,0.4-2.1,0.6c0,0,0,0,0,0c-0.1,0-0.1,0.4,0,0.4L64,33.3z"/>
	</g>
	<g fill="#fff" transform="translate(-7 0)">
		<path d="M156.2,2.8c3.5,0,4.8-0.2,5.7-0.2c0.7,0,1.2,0.2,1.2,0.5c0,0.4-0.3,0.6-1.4,0.8c-2.4,0.5-2.5,1.5-2.7,3.6 c-0.2,2.2-0.3,4.8-0.3,9.8c0,7.7,0.2,10.3,0.4,11.2c0.2,0.7,1.2,1.4,2,1.5c1.5,0.2,3.7,0.4,7.8,0.4c1.4,0,3.1-1.6,5.1-5.2 c0.3-0.7,0.8-1,1-1c0.3,0,0.6,0.5,0.3,1.6c-0.5,1.5-1.1,4.1-1.5,5.7c-0.1,0.5-1,1-1.4,1c-0.5,0-5.3-0.2-16.7-0.2 c-1.6,0-3.4,0.3-5.5,0.3c-1,0-1.4-0.3-1.4-0.6c0-0.3,0.4-0.7,1.2-0.8c3.3-0.6,3.6-1.4,3.7-3.5c0.1-1.4,0.3-5.1,0.3-10.3 c0-6.3-0.1-7.4-0.1-9.6c-0.1-2.2-0.5-3.4-3.2-3.8c-0.8-0.2-1.2-0.4-1.2-0.8c0-0.2,0.5-0.5,1.2-0.5C151.4,2.6,153.8,2.8,156.2,2.8z" />
		<path d="M189.7,2.8c2.4,0,4.2-0.3,5.5-0.3c1,0,1.5,0.1,1.5,0.5c0,0.5-0.7,0.7-1.7,0.9c-2.2,0.5-2.3,1.4-2.5,3.3 c-0.1,1.6-0.2,3-0.2,9.3c0,6.3,0.1,8,0.2,10.3c0.2,3.2,0.5,3.6,2.9,4.2c1,0.3,1.3,0.6,1.3,0.9c0,0.3-0.5,0.5-1.3,0.5 c-1.5,0-3.5-0.2-5.8-0.2c-2.2,0-4.7,0.3-5.6,0.3c-0.7,0-1.3-0.3-1.3-0.7c0-0.3,0.2-0.5,1.4-0.8c2-0.7,3-1.2,3.1-2.7 c0.1-1.4,0.2-5.7,0.2-12.1c0-5.2-0.1-7.3-0.1-9c0-2.2-0.5-2.6-3.3-3.3c-0.7-0.2-1.3-0.3-1.3-0.7c0-0.4,0.6-0.6,1.4-0.6 C185.9,2.6,187.8,2.8,189.7,2.8z"/>
		<path d="M225.4,15.7c1,0.3,2.6,1.2,3.9,2.2c1.3,1.1,2.4,3.3,2.4,5c0,3.9-2,6-4.2,7.5c-2.3,1.7-7.1,2-9.4,2c-2.9,0-4.8-0.2-5.9-0.2 c-1.2,0-4.4,0.2-5.2,0.2c-1,0-1.6-0.3-1.6-0.5c0-0.4,0.5-0.7,1.4-0.8c2.8-0.3,3.1-1.7,3.3-4.2c0.2-2,0.2-6.7,0.2-10.2 c0-4.8,0-8.1-0.2-9.8c-0.3-1.8-0.4-2.5-3.1-3c-0.8-0.1-1.4-0.3-1.4-0.7c0-0.3,0.6-0.5,1-0.5c0.6,0,2,0,2.5,0c2.2,0,6.5-0.2,8.9-0.3 c2.9-0.1,6.4,0.5,8.1,1.6c2,1.4,2.9,3.1,2.9,5.4c0,2.6-1.2,4.6-3.7,5.8C225.3,15.2,224.9,15.5,225.4,15.7z M217.8,16.7 c-0.7,0-1.6,0.1-2.2,0.3c-0.3,0.1-0.6,0.7-0.6,1.2c-0.1,2.2,0.1,7.4,0.1,8.8c0,0.8,0.1,1.4,0.8,2c0.9,0.8,2.9,1.9,4.3,1.9 c0.5,0,2-0.3,2.8-0.9c1.6-1,3-2.9,3-6.4c0-1-0.3-3.5-2.2-5C222,17.1,220.1,16.7,217.8,16.7z M215.5,4.3c-0.2,0.1-0.3,0.5-0.3,1.4 c-0.1,2.9-0.1,6.3-0.1,9.3c0,0.3,0.2,0.6,1.5,0.6c1.7,0,3.9-0.4,5.2-1.1c1.3-0.7,2.5-2.2,2.5-4.6c0-4.3-3.9-6.2-6.5-6.2 C216.9,3.7,216,3.9,215.5,4.3z"/>
		<path d="M247.6,2.7c2.2,0,3.8-0.3,6.2-0.3c2.8,0,6.9,0.7,8.9,2.4c1.5,1.3,2.4,3.4,2.4,5.5c0,4.6-3.7,6.1-5.7,7.1 c-0.1,0-0.2,0.4,0,0.8c0.8,1.8,4.5,6.7,5.9,8.2c1.8,2.1,3.9,4.2,6.2,4.7c0.8,0.1,1.4,0.2,1.4,0.7c0,0.4-0.4,0.5-0.8,0.7 c-0.7,0.3-2.4,0.3-3.1,0.3c-2.9,0-5.6-1.2-8.2-4.2c-2-2.4-3.9-5-5.7-7.7c-1.1-1.5-1.8-2.7-3.8-2.7c-0.4,0-1.1,0.2-1.1,0.5 c0,0.8-0.1,7.2,0.1,8.9c0.3,1.5,0.5,2.8,2.9,3.4c0.8,0.2,1.4,0.5,1.4,0.8c0,0.3-0.4,0.7-1.7,0.7c-1.4,0-3.8-0.2-5.4-0.2 c-1.9,0-3.9,0.2-5.2,0.2c-1,0-1.7-0.2-1.7-0.7c0-0.4,0.5-0.6,1.4-0.8c2.5-0.7,2.9-1.4,3.1-3.2c0.2-1.5,0.3-6.9,0.3-12 c0-5.2,0-7.3-0.1-8.9c-0.1-1.5-0.6-2.4-3.1-2.9c-1.3-0.3-1.4-0.5-1.4-0.7s0.5-0.6,1.4-0.6L247.6,2.7z M251.1,4.3 c-0.5,0.2-0.6,0.9-0.7,1.7c-0.2,1.7-0.2,4.4-0.2,9.7c0,0.4,0.2,1,0.5,1c0.7,0.1,1.7,0.2,2.2,0.2s3.5-0.3,4.3-0.9 c0.8-0.5,2.6-2,2.6-5.3c0-2.8-1.7-6.7-6.9-6.7C252.1,4,251.4,4.1,251.1,4.3z"/>
		<path d="M290.4,5.2c0.2-0.3,0.3-1.1,0.3-1.4c0-0.2,0-0.3,0-0.6c0-0.2,0.4-0.7,0.6-0.7c0.4-0.1,2.3-0.1,2.7,0c0.2,0,0.5,0.4,0.5,0.6 c0.1,0.7,0.3,1.3,0.8,2.7c1,2.9,6.8,17.8,8,20.5c1.4,3.2,1.4,3.7,4.6,4.7c0.7,0.3,1,0.4,1,0.7c0,0.4-0.6,0.7-1.3,0.7 c-1,0-2.5-0.2-5.3-0.2c-2.9,0-4,0.2-5.6,0.2c-1.2,0-1.4-0.3-1.4-0.7c0-0.4,0.7-0.7,1.4-0.8c1.3-0.4,2-0.7,2-1.9 c0-0.7-1.5-4.1-2.5-7.1c-0.1-0.5-0.6-1-1.2-1c-1.5-0.1-7.2,0-7.8,0c-0.5,0-0.9,0.7-1,0.8c-0.6,1.4-2,6-2,6.9c0,1.1,0.7,1.8,3.2,2.4 c0.8,0.2,1.1,0.6,1.1,0.8c0,0.4-0.7,0.6-1.2,0.6c-1.2,0-2.9-0.2-4.9-0.2c-1.7,0-3.1,0.2-4.3,0.2c-1.2,0-1.8-0.3-1.8-0.6 c0-0.4,0.4-0.7,1.4-0.9c2.2-0.6,2.9-1,5-5.4C284.2,22.4,289.7,7.1,290.4,5.2z M291.4,8.1c-0.1-0.1-0.4,0.1-0.5,0.2 c-0.9,2.4-2.9,8-3.5,9.6c-0.1,0.3,0.1,0.7,0.3,0.7c0.6,0.1,5.8,0.1,6.9-0.1c0.1,0,0.5-0.1,0.3-0.6C294,15.3,292.6,11.3,291.4,8.1z" />
		<path d="M323,2.7c2.2,0,3.8-0.3,6.2-0.3c2.8,0,6.9,0.7,8.9,2.4c1.5,1.3,2.4,3.4,2.4,5.5c0,4.6-3.7,6.1-5.7,7.1 c-0.1,0-0.2,0.4,0,0.8c0.8,1.8,4.5,6.7,5.9,8.2c1.8,2.1,3.9,4.2,6.2,4.7c0.8,0.1,1.4,0.2,1.4,0.7c0,0.4-0.4,0.5-0.8,0.7 c-0.7,0.3-2.4,0.3-3.1,0.3c-2.9,0-5.6-1.2-8.2-4.2c-2-2.4-3.9-5-5.7-7.7c-1.1-1.5-1.8-2.7-3.8-2.7c-0.4,0-1.1,0.2-1.1,0.5 c0,0.8-0.1,7.2,0.1,8.9c0.3,1.5,0.5,2.8,2.9,3.4c0.8,0.2,1.4,0.5,1.4,0.8c0,0.3-0.4,0.7-1.7,0.7c-1.4,0-3.8-0.2-5.4-0.2 c-1.9,0-3.9,0.2-5.2,0.2c-1,0-1.7-0.2-1.7-0.7c0-0.4,0.5-0.6,1.4-0.8c2.5-0.7,2.9-1.4,3.1-3.2c0.2-1.5,0.3-6.9,0.3-12 c0-5.2,0-7.3-0.1-8.9c-0.1-1.5-0.6-2.4-3.1-2.9c-1.3-0.3-1.4-0.5-1.4-0.7s0.5-0.6,1.4-0.6L323,2.7z M326.5,4.3 c-0.5,0.2-0.6,0.9-0.7,1.7c-0.2,1.7-0.2,4.4-0.2,9.7c0,0.4,0.2,1,0.5,1c0.7,0.1,1.7,0.2,2.2,0.2s3.5-0.3,4.3-0.9 c0.8-0.5,2.6-2,2.6-5.3c0-2.8-1.7-6.7-6.9-6.7C327.5,4,326.9,4.1,326.5,4.3z"/>
		<path d="M357.3,2.8c2.2,0,3.9-0.2,5.4-0.2c0.7,0,1.1,0.1,1.1,0.5c0,0.2-0.3,0.7-1.2,0.8c-2.1,0.5-2,1.2-1.4,2.5 c1.8,3.5,4.2,7.4,5.9,10.3c0.1,0.2,0.4,0.1,0.5-0.1c1.2-1.6,5-8.4,5.7-10c0.7-1.5,0.1-2.2-2-2.8c-0.8-0.3-1.1-0.5-1.1-0.6 c0-0.3,0.2-0.7,1.2-0.7c1.1,0,3,0.2,4.8,0.2c2.4,0,3-0.2,4.4-0.2c0.8,0,1.1,0.2,1.1,0.5c0,0.5-0.7,0.7-1.2,0.8 c-2.5,0.7-3.3,0.7-5.9,4.4c-1.3,2-5,8-6.3,10.4c-0.1,0.1-0.3,0.8-0.3,1.8c-0.1,0.8,0,5.3,0.1,6.8c0.1,1.7,0.5,3.1,3.2,3.7 c0.9,0.2,1.4,0.5,1.4,0.8s-0.1,0.6-1.6,0.6c-2.4,0-3.7-0.2-6.1-0.2c-1.8,0-3.6,0.2-5.3,0.2c-0.8,0-1.4-0.2-1.4-0.7 c0-0.3,0.4-0.5,1.2-0.7c2.7-0.7,3.1-1.4,3.4-2.5c0.3-1.7,0.2-4.9,0.1-6.7c0-1-0.1-2.2-0.5-2.9c-1.3-2.9-4.6-8.7-5.9-10.6 c-1.9-2.7-2.4-3.7-5.4-4.4c-0.7-0.2-1-0.5-1-0.7c0-0.4,0.5-0.5,1.1-0.5C352.6,2.6,355.4,2.8,357.3,2.8z"/>
	</g>
</g>
</svg>
