<?xml version="1.0" encoding="utf-8"?>
<!-- Generator: Adobe Illustrator 17.0.0, SVG Export Plug-In . SVG Version: 6.00 Build 0)  -->
<!DOCTYPE svg PUBLIC "-//W3C//DTD SVG 1.0//EN" "http://www.w3.org/TR/2001/REC-SVG-20010904/DTD/svg10.dtd">
<svg version="1.0" id="Layer_1" xmlns="http://www.w3.org/2000/svg" xmlns:xlink="http://www.w3.org/1999/xlink" x="0px" y="0px"
	 width="1986.452px" height="210px" viewBox="0 0 1986.452 210" enable-background="new 0 0 1986.452 210" xml:space="preserve">
<g>
	<path fill="#9FAFC5" d="M423.703,47.649c0.152-0.038,0.161-0.483-0.072-0.483h-57.85c-0.229,0-0.227,0.442-0.068,0.48
		c0.027,0.007,0.065,0.012,0.065,0.012c3.254,0.716,4.877,1.155,7.689,2.526c2.091,1.062,2.27,3.058,2.27,6.177v57.806
		c0,13.181-7.549,23.307-22.536,23.307c-14.988,0-22.54-10.126-22.54-23.307l0.003-57.784c0-3.12,0.182-5.13,2.275-6.194
		c2.813-1.373,4.433-1.812,7.687-2.524c0,0,0.039-0.006,0.069-0.015c0.155-0.038,0.157-0.483-0.075-0.483L286,47.174
		c-0.232,0-0.227,0.443-0.071,0.485c0.026,0.006,0.065,0.016,0.065,0.016c1.828,0.423,3.072,1.022,4.471,2.23
		c1.808,1.533,2.27,3.344,2.27,6.464l-0.002,56.812c0,27.395,14.984,50.653,60.469,50.653c45.479,0,60.466-23.259,60.466-50.653
		V56.346c0-3.116,0.188-5.094,2.278-6.158c2.813-1.373,4.436-1.812,7.689-2.524C423.634,47.663,423.674,47.657,423.703,47.649z"/>
	<path fill="#9FAFC5" d="M115.255,100.654c-0.08-0.021-0.096-0.215,0-0.244c8.823-2.75,16.933-9.22,16.933-24.855
		c0-21.202-14.323-28.388-45.571-28.388H11.714c-0.232,0-0.227,0.445-0.074,0.48c0.033,0.011,0.068,0.017,0.068,0.017
		c3.254,0.71,4.877,1.149,7.689,2.521c2.094,1.068,2.258,3.043,2.258,6.159l-0.015,96.198c0,3.113-0.18,5.124-2.273,6.194
		c-2.81,1.369-4.435,1.801-7.689,2.518c0,0-0.039,0.009-0.065,0.018c-0.156,0.038-0.165,0.477,0.065,0.477
		c0.233,0,77.798,0,77.798,0c32.817,0,46.618-13.019,46.618-33.332C136.094,113.4,129.103,104.1,115.255,100.654z M58.162,68.781
		h17.58c11.462,0,18.185,1.78,18.185,12.196c0,6.767-4.176,12.804-17.717,12.804H58.162V68.781z M75.121,139.616H58.162v-28.126
		h15.25c10.156,0,22.584,0,22.584,14.065C95.996,135.966,87.099,139.616,75.121,139.616z"/>
	<path fill="#9FAFC5" d="M280.732,47.165h-52.914c-0.232,0-0.227,0.438-0.072,0.48c0.03,0.007,0.078,0.018,0.078,0.018
		c1.945,0,4.951,0.14,4.754,4.697c-0.172,3.962-20.505,32.762-22.879,37.084c-7.138-10.807-22.757-32.785-22.913-37.084
		c-0.125-3.524,2.816-4.697,5.411-4.697c0,0,0.039-0.006,0.068-0.015c0.152-0.038,0.164-0.483-0.068-0.483h-56.204
		c-0.229,0-0.224,0.445-0.066,0.483c0.03,0.009,0.066,0.015,0.066,0.015c2.371,0.457,3.52,0.725,6.332,2.094
		c0.328,0.164,1.115,0.684,1.42,0.943c1.787,1.5,3.17,3.182,5.345,6.415l39.629,58.677l0.003,36.749c0,3.116-0.179,5.126-2.27,6.197
		c-2.812,1.366-4.435,1.802-7.692,2.518c0,0-0.036,0.006-0.065,0.015c-0.155,0.038-0.164,0.48,0.069,0.48h60.997
		c0.235,0,0.232-0.442,0.077-0.48c-0.032-0.009-0.065-0.015-0.065-0.015c-3.257-0.716-4.88-1.151-7.692-2.518
		c-2.09-1.071-2.27-3.074-2.27-6.192v-36.501l39.684-58.927c2.178-3.233,3.564-4.918,5.348-6.422
		c0.308-0.256,0.969-0.802,1.417-1.086c1.641-1.062,2.49-1.499,4.479-1.947c0,0,0.039-0.006,0.066-0.018
		C280.959,47.611,280.965,47.165,280.732,47.165z"/>
</g>
<g>
	<path fill="#FFFFFF" d="M648.534,52.927c-14.514,1.239-15.93,2.124-15.93,16.815v71.509c0,14.868,1.416,15.753,15.753,16.815v4.956
		h-47.437v-4.956c15.045-1.062,16.638-1.947,16.638-16.815v-35.4h-60.357v35.4c0,14.691,1.416,15.753,15.931,16.815v4.956H526.58
		v-4.956c14.16-1.062,15.576-1.947,15.576-16.815V69.743c0-14.868-1.416-15.576-15.93-16.815v-4.956h45.843v4.956
		c-13.452,1.239-14.868,2.124-14.868,16.815v28.674h60.357V69.743c0-14.691-1.416-15.576-15.222-16.815v-4.956h46.197V52.927z"/>
	<path fill="#FFFFFF" d="M708.891,165.146c-2.655,0-6.372-1.593-8.319-3.363c-2.301-2.479-3.362-4.956-4.248-7.965
		c-7.08,4.779-15.576,11.328-20.886,11.328c-12.567,0-21.24-10.443-21.24-21.594c0-8.673,4.602-14.16,14.337-17.523
		c10.62-3.54,23.541-8.319,27.436-11.505v-3.186c0-12.744-6.019-20.001-14.868-20.001c-3.54,0-6.195,1.416-7.965,3.54
		c-2.302,2.301-3.895,6.195-5.311,11.683c-0.708,2.832-2.655,4.071-5.133,4.071c-3.187,0-7.788-3.54-7.788-7.611
		c0-2.655,2.301-4.603,5.664-7.08c4.956-3.54,16.461-10.443,26.55-12.391c5.311,0,10.62,1.593,14.515,4.779
		c6.194,5.133,7.965,12.39,7.965,21.594v32.922c0,7.965,3.187,10.62,6.195,10.62c2.124,0,4.602-0.885,6.372-1.947l1.77,4.603
		L708.891,165.146z M695.97,120.542c-3.718,1.947-12.214,5.664-15.931,7.434c-6.902,3.186-10.797,6.549-10.797,12.921
		c0,9.204,7.08,13.629,12.567,13.629c4.602-0.177,10.797-3.186,14.16-6.372V120.542z"/>
	<path fill="#FFFFFF" d="M752.257,102.311c5.31-8.851,12.921-18.763,21.417-18.763c6.018,0,10.266,4.603,10.266,8.851
		c0,3.54-2.301,7.08-5.664,8.673c-2.123,0.885-3.717,0.708-4.778-0.354c-2.479-2.655-4.603-3.717-7.435-3.717
		c-4.602,0-10.266,5.311-14.16,15.223v32.391c0,11.682,0.885,12.744,14.515,13.806v4.602h-40.711v-4.602
		c10.975-1.062,12.214-2.124,12.214-13.806v-36.639c0-11.683-0.886-12.391-10.975-13.807v-3.894
		c8.673-1.416,16.461-3.54,24.957-7.257v19.293H752.257z"/>
	<path fill="#FFFFFF" d="M863.414,123.02c0,28.497-20.886,42.126-38.409,42.126c-24.249,0-38.764-19.47-38.764-39.118
		c0-29.205,22.656-42.48,38.764-42.48C846.953,83.548,863.414,101.072,863.414,123.02z M802.703,120.365
		c0,22.303,9.734,38.94,24.249,38.94c10.974,0,20.001-8.142,20.001-32.391c0-20.709-8.319-37.524-23.719-37.524
		C812.261,89.39,802.703,100.364,802.703,120.365z"/>
	<path fill="#FFFFFF" d="M867.839,163.022v-4.602c11.151-1.062,12.744-2.124,12.744-13.806V60.892
		c0-12.036-1.062-12.567-12.214-13.452v-4.248c9.205-1.062,20.179-4.071,26.197-6.195v107.617c0,11.682,1.416,12.744,12.744,13.806
		v4.602H867.839z"/>
	<path fill="#FFFFFF" d="M997.933,158.42c-3.894,0.708-17.169,3.009-27.435,6.726v-11.505l-10.798,6.372
		c-6.903,4.071-11.682,5.133-13.806,5.133c-14.16,0-32.746-12.921-32.746-37.702c0-24.603,21.595-43.896,45.667-43.896
		c2.478,0,7.611,0.531,11.683,1.947V60.539c0-11.683-0.886-12.213-13.63-13.099v-4.248c9.204-1.239,21.063-3.894,27.612-6.195
		v105.67c0,9.204,1.239,10.089,7.788,10.797l5.664,0.531V158.42z M970.498,99.124c-4.248-6.195-11.506-9.027-18.231-9.027
		c-8.143,0-23.011,6.903-23.011,32.568c0,21.063,12.922,31.33,24.25,31.33c6.371,0,12.744-2.832,16.992-6.019V99.124z"/>
	<path fill="#FFFFFF" d="M1098.82,101.072c17.523,2.655,31.329,10.443,31.329,28.144c0,11.859-6.549,20.886-16.992,26.727
		c-9.026,4.956-20.709,7.08-34.692,7.08h-39.117v-4.956c15.223-1.062,16.284-2.124,16.284-16.992V69.743
		c0-14.691-0.708-15.753-14.868-16.815v-4.956h45.489c13.275,0,21.063,2.124,26.551,6.018c6.372,4.248,9.912,12.036,9.912,20.178
		c0,16.815-13.983,23.718-23.896,26.373V101.072z M1078.819,98.948c19.47,0,27.612-7.788,27.612-22.656
		c0-12.036-6.727-22.656-23.541-22.656c-4.426,0-8.319,0.708-10.09,1.77c-1.593,1.062-2.301,3.009-2.301,8.85v34.692H1078.819z
		 M1070.5,140.897c0,12.744,3.363,16.107,14.691,16.107c14.514-0.177,27.436-7.611,27.436-26.02
		c0-18.231-12.391-26.196-33.984-26.196h-8.143V140.897z"/>
	<path fill="#FFFFFF" d="M1140.768,154.88c0-5.664,4.248-10.089,9.912-10.089s9.912,4.425,9.912,10.089
		c0,6.195-4.248,10.266-9.912,10.266S1140.768,161.076,1140.768,154.88z"/>
	<path fill="#FFFFFF" d="M1296.88,135.233c-1.062,5.487-4.778,22.303-6.372,27.79h-80.182v-4.956
		c14.868-1.062,16.284-2.301,16.284-17.346V69.919c0-15.045-1.239-15.93-15.576-16.992v-4.956h46.197v4.956
		c-13.983,1.062-15.576,1.947-15.576,16.992v69.916c0,9.558,0.886,13.098,4.071,14.868c3.54,1.947,9.559,2.301,16.992,2.301
		c9.735,0,15.753-0.885,19.824-5.487c3.009-3.54,6.372-9.204,9.027-17.346L1296.88,135.233z"/>
	<path fill="#FFFFFF" d="M1367.146,147.977c-11.151,13.983-23.364,17.169-28.852,17.169c-21.771,0-34.516-17.7-34.516-37.702
		c0-12.213,4.425-23.01,11.683-30.975c7.257-8.142,16.814-12.921,26.02-12.921c14.69,0,26.55,13.099,26.55,26.904
		c0,3.54-0.885,4.956-4.071,5.664c-3.009,0.531-25.134,2.301-46.197,3.009c0.177,24.072,13.983,33.984,26.373,33.984
		c7.08,0,13.807-2.832,20.179-8.85L1367.146,147.977z M1318.646,111.869c9.912,0,19.647-0.177,29.914-0.531
		c3.186,0,4.248-1.062,4.248-3.54c0.177-9.204-5.842-17.7-15.576-17.7C1329.09,90.098,1321.302,97.532,1318.646,111.869z"/>
	<path fill="#FFFFFF" d="M1439.712,147.977c-11.151,13.983-23.364,17.169-28.852,17.169c-21.771,0-34.516-17.7-34.516-37.702
		c0-12.213,4.425-23.01,11.683-30.975c7.257-8.142,16.814-12.921,26.02-12.921c14.69,0,26.55,13.099,26.55,26.904
		c0,3.54-0.885,4.956-4.071,5.664c-3.009,0.531-25.134,2.301-46.197,3.009c0.177,24.072,13.983,33.984,26.373,33.984
		c7.08,0,13.807-2.832,20.179-8.85L1439.712,147.977z M1391.213,111.869c9.912,0,19.647-0.177,29.914-0.531
		c3.186,0,4.248-1.062,4.248-3.54c0.177-9.204-5.842-17.7-15.576-17.7C1401.656,90.098,1393.868,97.532,1391.213,111.869z"/>
	<path fill="#FFFFFF" d="M1571.042,135.233c-1.062,5.487-4.778,22.303-6.372,27.79h-80.182v-4.956
		c14.868-1.062,16.284-2.301,16.284-17.346V69.919c0-15.045-1.239-15.93-15.576-16.992v-4.956h46.197v4.956
		c-13.983,1.062-15.576,1.947-15.576,16.992v69.916c0,9.558,0.886,13.098,4.071,14.868c3.54,1.947,9.559,2.301,16.992,2.301
		c9.735,0,15.753-0.885,19.824-5.487c3.009-3.54,6.372-9.204,9.027-17.346L1571.042,135.233z"/>
	<path fill="#FFFFFF" d="M1576.526,163.022v-4.602c11.151-1.062,12.39-2.124,12.39-14.16v-36.462c0-10.974-0.53-11.682-11.15-13.452
		v-4.248c9.027-1.416,17.346-3.717,25.134-6.903v61.065c0,12.036,1.239,13.098,12.567,14.16v4.602H1576.526z M1585.907,59.123
		c0-5.311,4.248-9.204,9.027-9.204c4.956,0,8.851,3.894,8.851,9.204c0,4.779-3.895,9.027-9.027,9.027
		C1590.155,68.149,1585.907,63.901,1585.907,59.123z"/>
	<path fill="#FFFFFF" d="M1655.29,85.319c2.832-1.239,5.311-1.771,7.257-1.771c18.939,0,34.87,16.284,34.87,37.171
		c0,26.019-20.71,44.427-44.428,44.427c-7.257,0-16.284-1.77-26.02-6.372V60.361c0-10.974-0.354-12.036-11.682-13.098v-4.071
		c8.319-1.062,19.116-3.894,25.665-6.195v54.517L1655.29,85.319z M1640.953,142.49c0,2.655,0.354,4.425,1.062,6.018
		c1.062,3.54,6.371,9.735,15.753,9.912c14.69,0,24.072-12.567,24.072-33.1c0-20.178-12.391-31.86-27.081-31.86
		c-4.957,0-10.621,1.416-13.807,3.363V142.49z"/>
	<path fill="#FFFFFF" d="M1730.692,102.311c5.31-8.851,12.921-18.763,21.417-18.763c6.018,0,10.266,4.603,10.266,8.851
		c0,3.54-2.301,7.08-5.664,8.673c-2.123,0.885-3.717,0.708-4.778-0.354c-2.479-2.655-4.603-3.717-7.435-3.717
		c-4.602,0-10.266,5.311-14.16,15.223v32.391c0,11.682,0.885,12.744,14.515,13.806v4.602h-40.711v-4.602
		c10.975-1.062,12.214-2.124,12.214-13.806v-36.639c0-11.683-0.886-12.391-10.975-13.807v-3.894
		c8.673-1.416,16.461-3.54,24.957-7.257v19.293H1730.692z"/>
	<path fill="#FFFFFF" d="M1822.022,165.146c-2.655,0-6.372-1.593-8.319-3.363c-2.301-2.479-3.363-4.956-4.248-7.965
		c-7.08,4.779-15.576,11.328-20.886,11.328c-12.567,0-21.24-10.443-21.24-21.594c0-8.673,4.602-14.16,14.337-17.523
		c10.62-3.54,23.541-8.319,27.436-11.505v-3.186c0-12.744-6.019-20.001-14.868-20.001c-3.54,0-6.195,1.416-7.966,3.54
		c-2.301,2.301-3.894,6.195-5.31,11.683c-0.708,2.832-2.655,4.071-5.133,4.071c-3.187,0-7.788-3.54-7.788-7.611
		c0-2.655,2.301-4.603,5.664-7.08c4.956-3.54,16.461-10.443,26.55-12.391c5.311,0,10.62,1.593,14.515,4.779
		c6.195,5.133,7.965,12.39,7.965,21.594v32.922c0,7.965,3.186,10.62,6.195,10.62c2.124,0,4.602-0.885,6.372-1.947l1.77,4.603
		L1822.022,165.146z M1809.102,120.542c-3.717,1.947-12.213,5.664-15.931,7.434c-6.903,3.186-10.797,6.549-10.797,12.921
		c0,9.204,7.08,13.629,12.567,13.629c4.602-0.177,10.797-3.186,14.16-6.372V120.542z"/>
	<path fill="#FFFFFF" d="M1865.389,102.311c5.31-8.851,12.921-18.763,21.417-18.763c6.019,0,10.267,4.603,10.267,8.851
		c0,3.54-2.302,7.08-5.664,8.673c-2.125,0.885-3.718,0.708-4.779-0.354c-2.479-2.655-4.603-3.717-7.435-3.717
		c-4.602,0-10.266,5.311-14.16,15.223v32.391c0,11.682,0.886,12.744,14.515,13.806v4.602h-40.711v-4.602
		c10.975-1.062,12.213-2.124,12.213-13.806v-36.639c0-11.683-0.885-12.391-10.974-13.807v-3.894
		c8.673-1.416,16.461-3.54,24.957-7.257v19.293H1865.389z"/>
	<path fill="#FFFFFF" d="M1984.861,90.098c-9.382,1.416-10.975,2.832-15.754,12.921c-4.425,9.381-9.912,24.072-22.125,53.277
		c-11.859,28.32-15.753,38.409-18.231,47.968c-0.885,3.363-3.186,4.248-5.664,4.248c-4.956,0-10.089-4.248-10.089-8.496
		c0-2.832,1.593-4.425,4.602-6.372c5.487-3.54,9.027-7.965,13.099-15.753c3.363-6.195,4.779-9.912,5.487-12.213
		c0.885-2.655,0.885-4.956-0.178-7.965c-7.08-20.178-15.045-41.596-20.354-54.163c-3.718-9.735-5.487-12.036-15.223-13.452v-4.425
		h35.932v4.425c-8.142,1.416-9.027,3.186-6.726,9.735l16.106,44.428c4.956-12.036,12.567-32.922,16.284-44.073
		c2.124-6.727,0.885-8.673-9.204-10.089v-4.425h32.038V90.098z"/>
</g>
</svg>
