<?xml version="1.0" encoding="utf-8"?>
<!-- Generator: Adobe Illustrator 17.1.0, SVG Export Plug-In . SVG Version: 6.00 Build 0)  -->
<!DOCTYPE svg PUBLIC "-//W3C//DTD SVG 1.1//EN" "http://www.w3.org/Graphics/SVG/1.1/DTD/svg11.dtd">
<svg version="1.1" id="Layer_1" xmlns="http://www.w3.org/2000/svg" xmlns:xlink="http://www.w3.org/1999/xlink" x="0px" y="0px"
	 viewBox="0 0 436.2 210" enable-background="new 0 0 436.2 210" xml:space="preserve">
<g>
	<path fill="#FFFFFF" d="M137,52.9c-14.5,1.2-15.9,2.1-15.9,16.8v71.5c0,14.9,1.4,15.8,15.8,16.8v5H89.4v-5
		c15-1.1,16.6-1.9,16.6-16.8v-35.4H45.7v35.4c0,14.7,1.4,15.8,15.9,16.8v5H15.1v-5c14.2-1.1,15.6-1.9,15.6-16.8V69.7
		c0-14.9-1.4-15.6-15.9-16.8v-5h45.8v5c-13.5,1.2-14.9,2.1-14.9,16.8v28.7h60.4V69.7c0-14.7-1.4-15.6-15.2-16.8v-5H137V52.9z"/>
	<path fill="#FFFFFF" d="M205.9,101.1c17.5,2.7,31.3,10.4,31.3,28.1c0,11.9-6.5,20.9-17,26.7c-9,5-20.7,7.1-34.7,7.1h-39.1v-5
		c15.2-1.1,16.3-2.1,16.3-17V69.7c0-14.7-0.7-15.8-14.9-16.8v-5h45.5c13.3,0,21.1,2.1,26.6,6c6.4,4.2,9.9,12,9.9,20.2
		c0,16.8-14,23.7-23.9,26.4V101.1z M185.9,98.9c19.5,0,27.6-7.8,27.6-22.7c0-12-6.7-22.7-23.5-22.7c-4.4,0-8.3,0.7-10.1,1.8
		c-1.6,1.1-2.3,3-2.3,8.9v34.7H185.9z M177.6,140.9c0,12.7,3.4,16.1,14.7,16.1c14.5-0.2,27.4-7.6,27.4-26c0-18.2-12.4-26.2-34-26.2
		h-8.1V140.9z"/>
	<path fill="#FFFFFF" d="M332.8,135.2c-1.1,5.5-4.8,22.3-6.4,27.8h-80.2v-5c14.9-1.1,16.3-2.3,16.3-17.3V69.9c0-15-1.2-15.9-15.6-17
		v-5h46.2v5c-14,1.1-15.6,1.9-15.6,17v69.9c0,9.6,0.9,13.1,4.1,14.9c3.5,1.9,9.6,2.3,17,2.3c9.7,0,15.8-0.9,19.8-5.5
		c3-3.5,6.4-9.2,9-17.3L332.8,135.2z"/>
	<path fill="#FFFFFF" d="M424.5,135.2c-1.1,5.5-4.8,22.3-6.4,27.8h-80.2v-5c14.9-1.1,16.3-2.3,16.3-17.3V69.9c0-15-1.2-15.9-15.6-17
		v-5h46.2v5c-14,1.1-15.6,1.9-15.6,17v69.9c0,9.6,0.9,13.1,4.1,14.9c3.5,1.9,9.6,2.3,17,2.3c9.7,0,15.8-0.9,19.8-5.5
		c3-3.5,6.4-9.2,9-17.3L424.5,135.2z"/>
</g>
</svg>
