<svg enable-background="new 0 0 436.2 210" viewBox="0 0 436.2 210" xmlns="http://www.w3.org/2000/svg"><g fill="#fff"><path d="m137 52.9c-14.5 1.2-15.9 2.1-15.9 16.8v71.5c0 14.9 1.4 15.8 15.8 16.8v5h-47.5v-5c15-1.1 16.6-1.9 16.6-16.8v-35.4h-60.3v35.4c0 14.7 1.4 15.8 15.9 16.8v5h-46.5v-5c14.2-1.1 15.6-1.9 15.6-16.8v-71.5c0-14.9-1.4-15.6-15.9-16.8v-5h45.8v5c-13.5 1.2-14.9 2.1-14.9 16.8v28.7h60.4v-28.7c0-14.7-1.4-15.6-15.2-16.8v-5h46.1z"/><path d="m205.9 101.1c17.5 2.7 31.3 10.4 31.3 28.1 0 11.9-6.5 20.9-17 26.7-9 5-20.7 7.1-34.7 7.1h-39.1v-5c15.2-1.1 16.3-2.1 16.3-17v-71.3c0-14.7-.7-15.8-14.9-16.8v-5h45.5c13.3 0 21.1 2.1 26.6 6 6.4 4.2 9.9 12 9.9 20.2 0 16.8-14 23.7-23.9 26.4zm-20-2.2c19.5 0 27.6-7.8 27.6-22.7 0-12-6.7-22.7-23.5-22.7-4.4 0-8.3.7-10.1 1.8-1.6 1.1-2.3 3-2.3 8.9v34.7zm-8.3 42c0 12.7 3.4 16.1 14.7 16.1 14.5-.2 27.4-7.6 27.4-26 0-18.2-12.4-26.2-34-26.2h-8.1z"/><path d="m332.8 135.2c-1.1 5.5-4.8 22.3-6.4 27.8h-80.2v-5c14.9-1.1 16.3-2.3 16.3-17.3v-70.8c0-15-1.2-15.9-15.6-17v-5h46.2v5c-14 1.1-15.6 1.9-15.6 17v69.9c0 9.6.9 13.1 4.1 14.9 3.5 1.9 9.6 2.3 17 2.3 9.7 0 15.8-.9 19.8-5.5 3-3.5 6.4-9.2 9-17.3z"/><path d="m424.5 135.2c-1.1 5.5-4.8 22.3-6.4 27.8h-80.2v-5c14.9-1.1 16.3-2.3 16.3-17.3v-70.8c0-15-1.2-15.9-15.6-17v-5h46.2v5c-14 1.1-15.6 1.9-15.6 17v69.9c0 9.6.9 13.1 4.1 14.9 3.5 1.9 9.6 2.3 17 2.3 9.7 0 15.8-.9 19.8-5.5 3-3.5 6.4-9.2 9-17.3z"/></g></svg>